<svg id="S_Razor_LG_N_D_2x" data-name="S_Razor_LG_N_D@2x" xmlns="http://www.w3.org/2000/svg" width="44" height="36" viewBox="0 0 44 36">
  <defs>
    <style>
      .fill {
        fill: #000;
        fill-rule: evenodd;
        opacity: 0.65;
      }

      
    </style>
  </defs>
  <title>S_Razor_LG_N_D@2x</title>
  <path id="Fill" class="fill" d="M30,23v2H28v2H26V24.094L24.875,23A1.054,1.054,0,0,1,24,23a1.074,1.074,0,0,1,.006-0.881L22.875,21s-2.081.8-2.875,0,0-2.906,0-2.906L18.937,17A1.136,1.136,0,0,1,18,17a1.136,1.136,0,0,1,0-.937L16.937,15H14V13h2V11h2v3l1,1a1.212,1.212,0,0,1,1,0,1.212,1.212,0,0,1,0,1l1.031,1S23.18,16.215,24,17s0,2.969,0,2.969L25,21a1.247,1.247,0,0,1,1,0,1.141,1.141,0,0,1,0,.969L27.062,23H30ZM8,17L24,33c1.937,1.906,2.094,1.906,4,0l1-1c0.969-1.031.969-1.062,1-1.906V29a3.389,3.389,0,0,0,1.656-.344A4.541,4.541,0,0,0,32,27h1.031c0.938-.031.969-0.031,1.969-1-0.031,0,1-1,1-1,1.906-1.906,1.906-2.062,0-4C36,21.031,20,5,20,5c-1.906-1.906-2.063-1.906-4,0L15,6c-0.969.969-1,.969-1,2.031V9a3.261,3.261,0,0,0-1.656.344A2.913,2.913,0,0,0,12,11H11.031c-0.969,0-1,.063-2.031,1L8,13C6.062,14.906,6.062,15.031,8,17Z"/>
  </svg>