<svg id="S_Pan_Lg_N_2x" data-name="S_Pan_Lg_N@2x" xmlns="http://www.w3.org/2000/svg" width="44" height="36" viewBox="0 0 44 36">
  <defs>
    <style>
      .fill {
        fill: #8C8C8C !important;
      }

      
    </style>
  </defs>
  <title>S_Pan_Lg_N@2x</title>
  <path class="fill" d="M35.647,9.806c-0.938-.335-1.97.5-2.406,1.524l-2.7,4.846a0.976,0.976,0,0,1-1.062.709c-0.359-.181-0.459-0.668-0.277-1.451l1.3-8.857a2.278,2.278,0,0,0-1.714-2.871,2.1,2.1,0,0,0-2.115,1.8l-1.237,8.258s-0.09,1.073-.826,1.035-0.656-1.134-.656-1.134V4a2.145,2.145,0,0,0-1.969-2.286A2.145,2.145,0,0,0,20.012,4v9.62a0.475,0.475,0,0,1-.938.093c-0.678-2.294-2.166-7.483-2.166-7.483A2.053,2.053,0,0,0,14.7,4.6a2.323,2.323,0,0,0-1.551,2.994l2.682,9.057a8.766,8.766,0,0,1,.246,1.23,2.079,2.079,0,0,1-.738,2.1c-0.383.254-5.315-2.882-5.315-2.882-1.969-1.556-3.182-1.017-3.691-.317-0.542.745-.164,1.968,0.617,2.91l6.968,6.993a4.145,4.145,0,0,1,.43.7A26.618,26.618,0,0,0,16.4,31.053c1.378,1.752,3.331,2.667,6.234,2.667,3.664,0,6.382-1.626,7.35-4.267,0.656-2.21,1.277-5.192,1.575-6.229,0.195-.678,4.965-10.393,4.965-10.393C37.057,11.588,36.841,10.233,35.647,9.806Z"/>
  </svg>