<svg id="S_Ripple_Lg_N_D_2x" data-name="S_Ripple_Lg_N_D@2x" xmlns="http://www.w3.org/2000/svg" width="44" height="36" viewBox="0 0 44 36">
  <defs>
    <style>
      .fill {
        fill: #000;
        fill-rule: evenodd;
        opacity: 0.65;
      }

      
    </style>
  </defs>
  <title>S_Ripple_Lg_N_D@2x</title>
  <path id="Fill" class="fill" d="M23,32H21a1,1,0,0,1-1-1V18H16v5.191a0.5,0.5,0,0,1-.724.447L2,17l13.276-6.638a0.5,0.5,0,0,1,.724.447V16h4V5a1,1,0,0,1,1-1h2a1,1,0,0,1,1,1V16h4V10.809a0.5,0.5,0,0,1,.724-0.447L42,17,28.724,23.638A0.5,0.5,0,0,1,28,23.191V18.5a0.5,0.5,0,0,0-.5-0.5H24V31A1,1,0,0,1,23,32Z" transform="translate(0 -0.333)"/>
  </svg>